<svg width="40" height="40" viewBox="0 0 40 40" fill="none" xmlns="http://www.w3.org/2000/svg">
<path d="M11.6665 31.6667H9.99984C5.39746 31.6667 1.6665 27.9357 1.6665 23.3333C1.6665 18.9166 5.10255 15.3024 9.44735 15.018C11.3161 11.0667 15.3388 8.33333 19.9998 8.33333C25.8776 8.33333 30.7402 12.68 31.5485 18.3344C31.5878 18.3337 31.6271 18.3333 31.6665 18.3333C35.3484 18.3333 38.3332 21.3181 38.3332 25C38.3332 28.6819 35.3484 31.6667 31.6665 31.6667H28.3332" stroke="#FFA600" stroke-width="2" stroke-linecap="round" stroke-linejoin="round"/>
<path d="M25 21.6667L20 16.6667M20 16.6667L15 21.6667M20 16.6667L20 30" stroke="#FFA600" stroke-width="2" stroke-linecap="round" stroke-linejoin="round"/>
</svg>
