<svg width="217" height="163" viewBox="0 0 217 163" fill="none" xmlns="http://www.w3.org/2000/svg">
<g opacity="0.4">
<path fill-rule="evenodd" clip-rule="evenodd" d="M27.125 36.675C27.125 56.93 43.5198 73.35 63.7438 73.35C69.1171 73.35 74.2201 72.1909 78.8171 70.1087C88.3572 65.7876 95.7181 57.4911 98.7936 47.3287C99.8139 43.9571 100.363 40.3802 100.363 36.675C100.363 16.42 83.9677 8.85376e-07 63.7438 0C43.5198 -8.85376e-07 27.125 16.42 27.125 36.675ZM47.4688 36.675C47.4688 40.5297 48.8048 44.0719 51.0383 46.8625C54.021 50.5889 58.6041 52.975 63.7438 52.975C68.8834 52.975 73.4665 50.5889 76.4492 46.8625C78.6827 44.0719 80.0188 40.5297 80.0188 36.675C80.0188 27.6728 72.7322 20.375 63.7438 20.375C54.7553 20.375 47.4688 27.6728 47.4688 36.675Z" fill="#3E3E3E"/>
<path d="M118.206 47.3287L108.5 57.05L98.7936 47.3287C95.7181 57.4911 88.3572 65.7876 78.8171 70.1087C88.088 79.3878 171.68 163 173.6 163C175.633 163 189.874 144.663 181.737 130.4C173.6 116.138 130.878 77.425 130.878 77.425L138.183 70.1088C128.643 65.7877 121.282 57.4911 118.206 47.3287Z" fill="#3E3E3E"/>
<path fill-rule="evenodd" clip-rule="evenodd" d="M153.256 3.91873e-06C133.032 3.03335e-06 116.638 16.42 116.638 36.675C116.638 40.3802 117.186 43.9571 118.206 47.3287C121.282 57.4911 128.643 65.7877 138.183 70.1088C142.78 72.1909 147.883 73.35 153.256 73.35C173.48 73.35 189.875 56.93 189.875 36.675C189.875 16.42 173.48 4.8041e-06 153.256 3.91873e-06ZM136.981 36.675C136.981 45.6772 144.268 52.975 153.256 52.975C162.245 52.975 169.531 45.6772 169.531 36.675C169.531 27.6728 162.245 20.375 153.256 20.375C144.268 20.375 136.981 27.6728 136.981 36.675Z" fill="#3E3E3E"/>
<path d="M99.2357 106.912L77.9844 85.575C77.9844 85.575 41.3652 116.137 33.2282 130.4C25.0912 144.663 39.3326 163 41.3657 163C43.3988 163 99.2357 106.912 99.2357 106.912Z" fill="#3E3E3E"/>
<path d="M51.0383 46.8625C54.021 50.5889 58.6041 52.975 63.7438 52.975C68.8834 52.975 73.4665 50.5889 76.4492 46.8625C66.928 41.2639 60.0468 41.0368 51.0383 46.8625Z" fill="#3E3E3E"/>
<path d="M140.551 46.8625C143.533 50.5889 148.117 52.975 153.256 52.975C158.396 52.975 162.979 50.5889 165.962 46.8625C156.441 41.2639 149.559 41.0368 140.551 46.8625Z" fill="#3E3E3E"/>
<path d="M94.9375 61.125C94.9375 72.3778 73.685 81.5 47.4688 81.5C21.2525 81.5 0 72.3778 0 61.125C0 49.8722 21.2525 40.75 47.4688 40.75C73.685 40.75 94.9375 49.8722 94.9375 61.125Z" fill="url(#paint0_radial_88_221)" fill-opacity="0.54"/>
<path fill-rule="evenodd" clip-rule="evenodd" d="M43.085 51.9321C44.4092 53.2583 44.4092 55.4084 43.085 56.7345L29.5225 70.3179C28.1984 71.644 26.0516 71.644 24.7275 70.3179C23.4033 68.9917 23.4033 66.8416 24.7275 65.5154L38.29 51.9321C39.6141 50.606 41.7609 50.606 43.085 51.9321ZM56.6475 51.9321C57.9717 53.2583 57.9717 55.4084 56.6475 56.7345L43.085 70.3179C41.7609 71.644 39.6141 71.644 38.29 70.3179C36.9658 68.9917 36.9658 66.8416 38.29 65.5154L51.8525 51.9321C53.1766 50.606 55.3234 50.606 56.6475 51.9321ZM70.21 51.9321C71.5342 53.2583 71.5342 55.4084 70.21 56.7345L56.6475 70.3179C55.3234 71.644 53.1766 71.644 51.8525 70.3179C50.5284 68.9917 50.5284 66.8416 51.8525 65.5154L65.415 51.9321C66.7391 50.606 68.8859 50.606 70.21 51.9321Z" fill="#D767D3"/>
<path d="M217 61.125C217 72.3778 195.748 81.5 169.531 81.5C143.315 81.5 122.063 72.3778 122.063 61.125C122.063 49.8722 143.315 40.75 169.531 40.75C195.748 40.75 217 49.8722 217 61.125Z" fill="url(#paint1_radial_88_221)" fill-opacity="0.54"/>
<path fill-rule="evenodd" clip-rule="evenodd" d="M165.148 51.9321C166.472 53.2583 166.472 55.4084 165.148 56.7345L151.585 70.3179C150.261 71.644 148.114 71.644 146.79 70.3179C145.466 68.9917 145.466 66.8416 146.79 65.5154L160.352 51.9321C161.677 50.606 163.823 50.606 165.148 51.9321ZM178.71 51.9321C180.034 53.2583 180.034 55.4084 178.71 56.7345L165.148 70.3179C163.823 71.644 161.677 71.644 160.352 70.3179C159.028 68.9917 159.028 66.8416 160.352 65.5154L173.915 51.9321C175.239 50.606 177.386 50.606 178.71 51.9321ZM192.273 51.9321C193.597 53.2583 193.597 55.4084 192.273 56.7345L178.71 70.3179C177.386 71.644 175.239 71.644 173.915 70.3179C172.591 68.9917 172.591 66.8416 173.915 65.5154L187.477 51.9321C188.802 50.606 190.948 50.606 192.273 51.9321Z" fill="#D767D3"/>
</g>
<defs>
<radialGradient id="paint0_radial_88_221" cx="0" cy="0" r="1" gradientUnits="userSpaceOnUse" gradientTransform="translate(108.5 81.5) rotate(90) scale(81.5 108.5)">
<stop offset="0.179" stop-color="#F635D3" stop-opacity="0.91"/>
<stop offset="0.584" stop-color="#D342B9" stop-opacity="0.657222"/>
<stop offset="1" stop-color="#796475" stop-opacity="0"/>
</radialGradient>
<radialGradient id="paint1_radial_88_221" cx="0" cy="0" r="1" gradientUnits="userSpaceOnUse" gradientTransform="translate(108.5 81.5) rotate(90) scale(81.5 108.5)">
<stop offset="0.179" stop-color="#F635D3" stop-opacity="0.91"/>
<stop offset="0.584" stop-color="#D342B9" stop-opacity="0.657222"/>
<stop offset="1" stop-color="#796475" stop-opacity="0"/>
</radialGradient>
</defs>
</svg>
